<?xml version="1.0" encoding="UTF-8" standalone="no" ?>
<!DOCTYPE svg PUBLIC "-//W3C//DTD SVG 1.1//EN" "http://www.w3.org/Graphics/SVG/1.1/DTD/svg11.dtd">
<svg xmlns="http://www.w3.org/2000/svg" xmlns:xlink="http://www.w3.org/1999/xlink" version="1.1" width="155" height="187.34" viewBox="22.22 145.71999999999997 155 187.34" xml:space="preserve">
<desc>Created with Fabric.js 4.6.0</desc>
<defs>
</defs>
<g transform="matrix(1 0 0 1 99.72 239.39)" id="UTzjORnsbY7gsv-V43PPV"  >
<g style="" vector-effect="non-scaling-stroke"   >
		<g transform="matrix(0.77 0 0 0.77 1.55 0)" id="_oJMow218fK_GBxi1g8LG"  >
<path style="stroke: none; stroke-width: 1; stroke-dasharray: none; stroke-linecap: butt; stroke-dashoffset: 0; stroke-linejoin: miter; stroke-miterlimit: 4; fill: rgb(235,238,242); fill-rule: nonzero; opacity: 1;" vector-effect="non-scaling-stroke"  transform=" translate(-90, -121)" d="M 0 242 L 0 0 L 180 0 L 180 242 z" stroke-linecap="round" />
</g>
		<g transform="matrix(0.77 0 0 0.77 1.55 53.9)" id="2FETiWtoViv0evjgKYLSn"  >
<path style="stroke: none; stroke-width: 1; stroke-dasharray: none; stroke-linecap: butt; stroke-dashoffset: 0; stroke-linejoin: miter; stroke-miterlimit: 4; fill: rgb(83,100,255); fill-rule: nonzero; opacity: 1;" vector-effect="non-scaling-stroke"  transform=" translate(-90, -51)" d="M 0 102 L 0 0 L 180 0 L 180 102 z" stroke-linecap="round" />
</g>
		<g transform="matrix(0.77 0 0 0.77 -0.19 -76.43)" id="FgXgEmIslEMG6Wc4HLBDi"  >
<path style="stroke: rgb(187,195,206); stroke-width: 1; stroke-dasharray: none; stroke-linecap: round; stroke-dashoffset: 0; stroke-linejoin: miter; stroke-miterlimit: 4; fill: none; fill-rule: nonzero; opacity: 1;" vector-effect="non-scaling-stroke"  transform=" translate(-147.75, -21.74)" d="M 126 23.3378 C 136.8 22.5378 133.5 15.8378 139.5 20.8377 C 140.167 22.1711 145.9 26.5378 149.5 23.3378 C 154 19.3378 156.578 18.0718 157.5 20.8377 C 160 28.3378 167.167 20.3377 169.5 20.8377" stroke-linecap="round" />
</g>
		<g transform="matrix(0.77 0 0 0.77 -41.77 22.63)" id="6hAtI6KOx23ocxggwaObv"  >
<path style="stroke: rgb(255,255,255); stroke-width: 1; stroke-dasharray: none; stroke-linecap: round; stroke-dashoffset: 0; stroke-linejoin: miter; stroke-miterlimit: 4; fill: none; fill-rule: nonzero; opacity: 1;" vector-effect="non-scaling-stroke"  transform=" translate(-93.75, -150.39)" d="M 72 151.338 C 77.1862 150.954 78 144.359 85.5 152.679 C 93 161 103 142.5 115.5 146.5" stroke-linecap="round" />
</g>
		<g transform="matrix(0.77 0 0 0.77 -50.81 -76.23)" id="sEes2SlTp4dP0BZ09sIgl"  >
<path style="stroke: none; stroke-width: 1; stroke-dasharray: none; stroke-linecap: butt; stroke-dashoffset: 0; stroke-linejoin: miter; stroke-miterlimit: 4; fill: rgb(187,195,206); fill-rule: nonzero; opacity: 1;" vector-effect="non-scaling-stroke"  transform=" translate(-10, -10)" d="M 0 10 C 0 4.47715 4.47715 0 10 0 C 15.52285 0 20 4.47715 20 10 C 20 15.52285 15.52285 20 10 20 C 4.47715 20 0 15.52285 0 10 z" stroke-linecap="round" />
</g>
		<g transform="matrix(0.77 0 0 0.77 1.55 -27.33)" id="F1i2v-Z8MKBPPLjsTSZ-C"  >
<path style="stroke: none; stroke-width: 1; stroke-dasharray: none; stroke-linecap: butt; stroke-dashoffset: 0; stroke-linejoin: miter; stroke-miterlimit: 4; fill: rgb(187,195,206); fill-rule: nonzero; opacity: 1;" vector-effect="non-scaling-stroke"  transform=" translate(-78, -40.5)" d="M 0 81 L 0 0 L 156 0 L 156 81 z" stroke-linecap="round" />
</g>
		<g transform="matrix(0.77 0 0 0.77 52.37 -76.23)" id="gbu6HA6rSejE0zoMoI6RF"  >
<path style="stroke: none; stroke-width: 1; stroke-dasharray: none; stroke-linecap: butt; stroke-dashoffset: 0; stroke-linejoin: miter; stroke-miterlimit: 4; fill: rgb(187,195,206); fill-rule: nonzero; opacity: 1;" vector-effect="non-scaling-stroke"  transform=" translate(-12, -5)" d="M 0 10 L 0 0 L 24 0 L 24 10 z" stroke-linecap="round" />
</g>
		<g transform="matrix(0.77 0 0 0.77 2.31 23.87)" id="N89_mhigC6Gk5TQMLEWGt"  >
<path style="stroke: none; stroke-width: 1; stroke-dasharray: none; stroke-linecap: butt; stroke-dashoffset: 0; stroke-linejoin: miter; stroke-miterlimit: 4; fill: rgb(255,255,255); fill-rule: nonzero; opacity: 1;" vector-effect="non-scaling-stroke"  transform=" translate(-6, -6)" d="M 0 6 C 0 2.68629 2.68629 0 6 0 C 9.31371 0 12 2.68629 12 6 C 12 9.31371 9.31371 12 6 12 C 2.68629 12 0 9.31371 0 6 z" stroke-linecap="round" />
</g>
		<g transform="matrix(0.77 0 0 0.77 36.2 22.94)" id="vtZAhqMp-LaKWkTf-eO1H"  >
<path style="stroke: rgb(255,255,255); stroke-width: 1; stroke-dasharray: none; stroke-linecap: round; stroke-dashoffset: 0; stroke-linejoin: miter; stroke-miterlimit: 4; fill: none; fill-rule: nonzero; opacity: 1;" vector-effect="non-scaling-stroke"  transform=" translate(-195, -150.79)" d="M 162 151.5 C 187.129 155.119 198.5 145 228 151.5" stroke-linecap="round" />
</g>
		<g transform="matrix(0.77 0 0 0.77 2.31 39.27)" id="1Rv3D_ntzf1rcgJIVvEeo"  >
<path style="stroke: none; stroke-width: 1; stroke-dasharray: none; stroke-linecap: butt; stroke-dashoffset: 0; stroke-linejoin: miter; stroke-miterlimit: 4; fill: rgb(255,255,255); fill-rule: nonzero; opacity: 1;" vector-effect="non-scaling-stroke"  transform=" translate(-6, -6)" d="M 0 6 C 0 2.68629 2.68629 0 6 0 C 9.31371 0 12 2.68629 12 6 C 12 9.31371 9.31371 12 6 12 C 2.68629 12 0 9.31371 0 6 z" stroke-linecap="round" />
</g>
		<g transform="matrix(0.77 0 0 0.77 36.2 38.13)" id="m8EuTzZ1NozkR7vNthbPn"  >
<path style="stroke: rgb(255,255,255); stroke-width: 1; stroke-dasharray: none; stroke-linecap: round; stroke-dashoffset: 0; stroke-linejoin: miter; stroke-miterlimit: 4; fill: none; fill-rule: nonzero; opacity: 1;" vector-effect="non-scaling-stroke"  transform=" translate(-195, -170.52)" d="M 162 171.234 C 187.129 174.853 198.5 164.734 228 171.234" stroke-linecap="round" />
</g>
		<g transform="matrix(0.77 0 0 0.77 2.31 54.67)" id="kEaVjTwTDDSPTWaZ7biAq"  >
<path style="stroke: none; stroke-width: 1; stroke-dasharray: none; stroke-linecap: butt; stroke-dashoffset: 0; stroke-linejoin: miter; stroke-miterlimit: 4; fill: rgb(255,255,255); fill-rule: nonzero; opacity: 1;" vector-effect="non-scaling-stroke"  transform=" translate(-6, -6)" d="M 0 6 C 0 2.68629 2.68629 0 6 0 C 9.31371 0 12 2.68629 12 6 C 12 9.31371 9.31371 12 6 12 C 2.68629 12 0 9.31371 0 6 z" stroke-linecap="round" />
</g>
		<g transform="matrix(0.77 0 0 0.77 36.2 53.53)" id="cKkvKJQ8WcXDK84Lo759n"  >
<path style="stroke: rgb(255,255,255); stroke-width: 1; stroke-dasharray: none; stroke-linecap: round; stroke-dashoffset: 0; stroke-linejoin: miter; stroke-miterlimit: 4; fill: none; fill-rule: nonzero; opacity: 1;" vector-effect="non-scaling-stroke"  transform=" translate(-195, -190.52)" d="M 162 191.234 C 187.129 194.853 198.5 184.734 228 191.234" stroke-linecap="round" />
</g>
		<g transform="matrix(0.77 0 0 0.77 20.41 73.15)" id="ZmOw7NCGnmzK5JlHyEZl4"  >
<path style="stroke: none; stroke-width: 1; stroke-dasharray: none; stroke-linecap: butt; stroke-dashoffset: 0; stroke-linejoin: miter; stroke-miterlimit: 4; fill: rgb(255,255,255); fill-rule: nonzero; opacity: 1;" vector-effect="non-scaling-stroke"  transform=" translate(-29.5, -9)" d="M 0 18 L 0 0 L 59 0 L 59 18 z" stroke-linecap="round" />
</g>
		<g transform="matrix(0.77 0 0 0.77 19.25 72.77)" id="tF7qWZL84UnHejYJJMjiR"  >
<path style="stroke: rgb(0,0,0); stroke-width: 1; stroke-dasharray: none; stroke-linecap: round; stroke-dashoffset: 0; stroke-linejoin: miter; stroke-miterlimit: 4; fill: none; fill-rule: nonzero; opacity: 1;" vector-effect="non-scaling-stroke"  transform=" translate(-173, -215.5)" d="M 156 216.204 C 168.945 219.775 174.803 209.79 190 216.204" stroke-linecap="round" />
</g>
		<g transform="matrix(0.77 0 0 0.77 0 11.55)" id="nOczkVEH5x-JkIeygxu_y"  >
<path style="stroke: none; stroke-width: 1; stroke-dasharray: none; stroke-linecap: butt; stroke-dashoffset: 0; stroke-linejoin: miter; stroke-miterlimit: 4; fill: rgb(0,0,0); fill-rule: nonzero; opacity: 1;" vector-effect="non-scaling-stroke"  transform=" translate(-100, -4)" d="M 0 8 L 0 0 L 200 0 L 200 8 z" stroke-linecap="round" />
</g>
</g>
</g>
</svg>