<?xml version="1.0" encoding="UTF-8" standalone="no" ?>
<!DOCTYPE svg PUBLIC "-//W3C//DTD SVG 1.1//EN" "http://www.w3.org/Graphics/SVG/1.1/DTD/svg11.dtd">
<svg xmlns="http://www.w3.org/2000/svg" xmlns:xlink="http://www.w3.org/1999/xlink" version="1.1" width="139.6" height="187.34" viewBox="347.15999999999997 145.71999999999997 139.6 187.34" xml:space="preserve">
<desc>Created with Fabric.js 4.6.0</desc>
<defs>
</defs>
<g transform="matrix(1 0 0 1 416.96 239.39)" id="QV2J9S_ZJLxiDexcdHlK1"  >
<g style="" vector-effect="non-scaling-stroke"   >
		<g transform="matrix(0.77 0 0 0.77 0 0)" id="RtRRyZ3wLj0Qscitd4i0k"  >
<path style="stroke: none; stroke-width: 1; stroke-dasharray: none; stroke-linecap: butt; stroke-dashoffset: 0; stroke-linejoin: miter; stroke-miterlimit: 4; fill: rgb(235,238,242); fill-rule: nonzero; opacity: 1;" vector-effect="non-scaling-stroke"  transform=" translate(-90, -121)" d="M 0 242 L 0 0 L 180 0 L 180 242 z" stroke-linecap="round" />
</g>
		<g transform="matrix(0.77 0 0 0.77 -39.66 0)" id="QQME20dzytzRY9cUhFp2N"  >
<path style="stroke: none; stroke-width: 1; stroke-dasharray: none; stroke-linecap: butt; stroke-dashoffset: 0; stroke-linejoin: miter; stroke-miterlimit: 4; fill: rgb(187,195,206); fill-rule: nonzero; opacity: 1;" vector-effect="non-scaling-stroke"  transform=" translate(-26.5, -105)" d="M 0 210 L 0 0 L 53 0 L 53 210 z" stroke-linecap="round" />
</g>
		<g transform="matrix(0.77 0 0 0.77 -40.9 0.05)" id="1bdJsKfUDXZFRSWHu-9O1"  >
<path style="stroke: none; stroke-width: 1; stroke-dasharray: none; stroke-linecap: butt; stroke-dashoffset: 0; stroke-linejoin: miter; stroke-miterlimit: 4; fill: rgb(0,0,0); fill-rule: nonzero; opacity: 1;" vector-effect="non-scaling-stroke"  transform=" translate(-506.88, -121.06)" d="M 490.354 117.287 L 488.025 118.122 L 490.354 118.951 L 490.354 119.681 L 487.258 118.465 L 487.258 117.773 L 490.354 116.555 L 490.354 117.287 Z M 492.933 117.185 L 492.933 115.441 L 493.788 115.441 L 493.788 120 L 492.933 120 L 492.933 119.514 C 492.841 119.703 492.722 119.846 492.575 119.941 C 492.431 120.037 492.26 120.085 492.062 120.085 C 491.688 120.085 491.396 119.935 491.189 119.634 C 490.982 119.333 490.879 118.909 490.879 118.362 C 490.879 117.808 490.983 117.382 491.192 117.085 C 491.403 116.788 491.703 116.64 492.092 116.64 C 492.268 116.64 492.425 116.686 492.563 116.777 C 492.704 116.867 492.827 117.003 492.933 117.185 Z M 491.737 118.368 C 491.737 118.685 491.79 118.933 491.896 119.112 C 492.001 119.292 492.146 119.382 492.332 119.382 C 492.518 119.382 492.664 119.292 492.771 119.112 C 492.879 118.933 492.933 118.685 492.933 118.368 C 492.933 118.052 492.879 117.804 492.771 117.624 C 492.664 117.444 492.518 117.354 492.332 117.354 C 492.146 117.354 492.001 117.444 491.896 117.624 C 491.79 117.804 491.737 118.052 491.737 118.368 Z M 494.878 116.719 L 496.577 116.719 L 496.577 119.341 L 497.644 119.341 L 497.644 120 L 494.649 120 L 494.649 119.341 L 495.719 119.341 L 495.719 117.378 L 494.878 117.378 L 494.878 116.719 Z M 495.719 115.122 L 496.577 115.122 L 496.577 116.124 L 495.719 116.124 L 495.719 115.122 Z M 501.224 116.719 L 500.181 120 L 499.123 120 L 498.08 116.719 L 498.95 116.719 L 499.65 119.279 L 500.354 116.719 L 501.224 116.719 Z M 508.185 119.833 C 508.04 119.917 507.885 119.979 507.719 120.021 C 507.553 120.063 507.374 120.085 507.183 120.085 C 506.677 120.085 506.281 119.933 505.996 119.628 C 505.711 119.323 505.568 118.901 505.568 118.362 C 505.568 117.821 505.712 117.398 505.999 117.094 C 506.286 116.787 506.683 116.634 507.188 116.634 C 507.364 116.634 507.533 116.654 507.695 116.695 C 507.859 116.736 508.022 116.8 508.185 116.886 L 508.185 117.671 C 508.06 117.563 507.922 117.481 507.771 117.425 C 507.623 117.366 507.469 117.337 507.309 117.337 C 507.029 117.337 506.814 117.426 506.664 117.604 C 506.514 117.781 506.438 118.034 506.438 118.362 C 506.438 118.69 506.514 118.942 506.664 119.118 C 506.814 119.294 507.029 119.382 507.309 119.382 C 507.475 119.382 507.63 119.354 507.774 119.3 C 507.919 119.243 508.056 119.158 508.185 119.045 L 508.185 119.833 Z M 509.825 118.632 L 509.825 116.101 L 508.955 116.101 L 508.955 115.441 L 510.684 115.441 L 510.684 118.632 C 510.684 118.89 510.724 119.072 510.804 119.18 C 510.884 119.287 511.02 119.341 511.211 119.341 L 511.896 119.341 L 511.896 120 L 510.971 120 C 510.562 120 510.27 119.895 510.092 119.684 C 509.914 119.473 509.825 119.122 509.825 118.632 Z M 514.357 118.459 C 514.037 118.459 513.813 118.5 513.687 118.582 C 513.56 118.664 513.496 118.805 513.496 119.004 C 513.496 119.152 513.54 119.271 513.628 119.358 C 513.716 119.446 513.835 119.49 513.985 119.49 C 514.212 119.49 514.388 119.405 514.513 119.235 C 514.638 119.063 514.7 118.824 514.7 118.518 L 514.7 118.459 L 514.357 118.459 Z M 515.553 118.128 L 515.553 120 L 514.7 120 L 514.7 119.634 C 514.597 119.778 514.464 119.89 514.302 119.968 C 514.14 120.046 513.961 120.085 513.766 120.085 C 513.393 120.085 513.102 119.986 512.893 119.789 C 512.686 119.592 512.582 119.316 512.582 118.963 C 512.582 118.58 512.706 118.298 512.954 118.116 C 513.202 117.933 513.586 117.841 514.105 117.841 L 514.7 117.841 L 514.7 117.697 C 514.7 117.559 514.649 117.454 514.548 117.384 C 514.448 117.312 514.301 117.275 514.105 117.275 C 513.9 117.275 513.701 117.302 513.508 117.354 C 513.316 117.405 513.116 117.487 512.907 117.601 L 512.907 116.868 C 513.097 116.79 513.289 116.732 513.484 116.695 C 513.68 116.658 513.887 116.64 514.105 116.64 C 514.639 116.64 515.013 116.748 515.228 116.965 C 515.444 117.182 515.553 117.569 515.553 118.128 Z M 518.825 116.821 L 518.825 117.571 C 518.667 117.47 518.502 117.394 518.33 117.343 C 518.16 117.29 517.989 117.264 517.817 117.264 C 517.626 117.264 517.481 117.292 517.384 117.349 C 517.286 117.403 517.237 117.485 517.237 117.595 C 517.237 117.751 517.446 117.878 517.864 117.976 L 517.896 117.984 L 518.143 118.043 C 518.455 118.117 518.684 118.237 518.828 118.403 C 518.975 118.567 519.048 118.79 519.048 119.071 C 519.048 119.409 518.937 119.663 518.714 119.833 C 518.493 120.001 518.16 120.085 517.715 120.085 C 517.518 120.085 517.315 120.067 517.108 120.032 C 516.901 119.999 516.691 119.948 516.479 119.88 L 516.479 119.13 C 516.668 119.237 516.86 119.319 517.056 119.376 C 517.253 119.433 517.443 119.461 517.627 119.461 C 517.828 119.461 517.98 119.432 518.084 119.373 C 518.188 119.314 518.239 119.229 518.239 119.118 C 518.239 119.009 518.202 118.925 518.128 118.866 C 518.056 118.808 517.882 118.745 517.606 118.679 L 517.369 118.626 C 517.041 118.552 516.802 118.436 516.651 118.277 C 516.501 118.119 516.426 117.907 516.426 117.642 C 516.426 117.325 516.54 117.079 516.769 116.903 C 516.997 116.728 517.318 116.64 517.732 116.64 C 517.918 116.64 518.103 116.655 518.286 116.687 C 518.472 116.716 518.651 116.761 518.825 116.821 Z M 522.44 116.821 L 522.44 117.571 C 522.282 117.47 522.117 117.394 521.945 117.343 C 521.775 117.29 521.604 117.264 521.433 117.264 C 521.241 117.264 521.097 117.292 520.999 117.349 C 520.901 117.403 520.853 117.485 520.853 117.595 C 520.853 117.751 521.062 117.878 521.479 117.976 L 521.512 117.984 L 521.758 118.043 C 522.07 118.117 522.299 118.237 522.443 118.403 C 522.59 118.567 522.663 118.79 522.663 119.071 C 522.663 119.409 522.552 119.663 522.329 119.833 C 522.108 120.001 521.775 120.085 521.33 120.085 C 521.133 120.085 520.931 120.067 520.724 120.032 C 520.517 119.999 520.307 119.948 520.094 119.88 L 520.094 119.13 C 520.283 119.237 520.476 119.319 520.671 119.376 C 520.868 119.433 521.059 119.461 521.242 119.461 C 521.443 119.461 521.596 119.432 521.699 119.373 C 521.803 119.314 521.854 119.229 521.854 119.118 C 521.854 119.009 521.817 118.925 521.743 118.866 C 521.671 118.808 521.497 118.745 521.222 118.679 L 520.984 118.626 C 520.656 118.552 520.417 118.436 520.267 118.277 C 520.116 118.119 520.041 117.907 520.041 117.642 C 520.041 117.325 520.155 117.079 520.384 116.903 C 520.612 116.728 520.934 116.64 521.348 116.64 C 521.533 116.64 521.718 116.655 521.901 116.687 C 522.087 116.716 522.267 116.761 522.44 116.821 Z M 523.41 118.441 L 526.507 118.441 L 526.507 119.136 L 523.41 119.136 L 523.41 118.441 Z M 523.41 117.108 L 526.507 117.108 L 526.507 117.797 L 523.41 117.797 L 523.41 117.108 Z M 489.927 122.626 L 489.927 124.252 L 489.177 124.252 L 489.177 122.626 L 489.927 122.626 Z M 488.427 122.626 L 488.427 124.252 L 487.677 124.252 L 487.677 122.626 L 488.427 122.626 Z M 491.931 125.925 L 492.906 125.925 L 492.906 127 L 491.931 127 L 491.931 125.925 Z M 495.546 125.925 L 496.521 125.925 L 496.521 127 L 495.546 127 L 495.546 125.925 Z M 499.161 125.925 L 500.137 125.925 L 500.137 127 L 499.161 127 L 499.161 125.925 Z M 504.388 122.626 L 504.388 124.252 L 503.638 124.252 L 503.638 122.626 L 504.388 122.626 Z M 502.888 122.626 L 502.888 124.252 L 502.138 124.252 L 502.138 122.626 L 502.888 122.626 Z M 505.334 124.287 L 505.334 123.555 L 508.431 124.773 L 508.431 125.465 L 505.334 126.681 L 505.334 125.951 L 507.663 125.122 L 505.334 124.287 Z" stroke-linecap="round" />
</g>
		<g transform="matrix(0.77 0 0 0.77 26.18 0)" id="ujY5DeI_7s23-JvN87aHd"  >
<path style="stroke: none; stroke-width: 1; stroke-dasharray: none; stroke-linecap: butt; stroke-dashoffset: 0; stroke-linejoin: miter; stroke-miterlimit: 4; fill: rgb(187,195,206); fill-rule: nonzero; opacity: 1;" vector-effect="non-scaling-stroke"  transform=" translate(-44, -105)" d="M 0 210 L 0 0 L 88 0 L 88 210 z" stroke-linecap="round" />
</g>
		<g transform="matrix(0.77 0 0 0.77 26.18 78.16)" id="WtOgfm-i7bDJPiPQy0Ju2"  >
<path style="stroke: none; stroke-width: 1; stroke-dasharray: none; stroke-linecap: butt; stroke-dashoffset: 0; stroke-linejoin: miter; stroke-miterlimit: 4; fill: rgb(146,159,177); fill-rule: nonzero; opacity: 1;" vector-effect="non-scaling-stroke"  transform=" translate(-20, -1.5)" d="M 0 3 L 0 0 L 40 0 L 40 3 z" stroke-linecap="round" />
</g>
		<g transform="matrix(0.77 0 0 0.77 25.41 0)" id="qWa7oy7oKFneAN_sk1tJ0"  >
<path style="stroke: none; stroke-width: 1; stroke-dasharray: none; stroke-linecap: butt; stroke-dashoffset: 0; stroke-linejoin: miter; stroke-miterlimit: 4; fill: rgb(137,155,181); fill-rule: nonzero; opacity: 0.4;" vector-effect="non-scaling-stroke"  transform=" translate(-20, -20)" d="M 0 40 L 0 0 L 40 0 L 40 40 z" stroke-linecap="round" />
</g>
		<g transform="matrix(0.77 0 0 0.77 26.18 0)" id="wjfJ1UvO0EfEnihJNoUXb"  >
<path style="stroke: none; stroke-width: 1; stroke-dasharray: none; stroke-linecap: butt; stroke-dashoffset: 0; stroke-linejoin: miter; stroke-miterlimit: 4; fill: rgb(137,155,181); fill-rule: nonzero; opacity: 0.2;" vector-effect="non-scaling-stroke"  transform=" translate(-25, -25)" d="M 0 50 L 0 0 L 50 0 L 50 50 z" stroke-linecap="round" />
</g>
		<g transform="matrix(0.77 0 0 0.77 25.41 0)" id="uesaHOF_AZvF_q-GA2d2-"  >
<path style="stroke: none; stroke-width: 1; stroke-dasharray: none; stroke-linecap: butt; stroke-dashoffset: 0; stroke-linejoin: miter; stroke-miterlimit: 4; fill: rgb(137,155,181); fill-rule: nonzero; opacity: 1;" vector-effect="non-scaling-stroke"  transform=" translate(-16, -16)" d="M 0 32 L 0 0 L 32 0 L 32 32 z" stroke-linecap="round" />
</g>
		<g transform="matrix(0.77 0 0 0.77 25.07 0.22)" id="VegYhlQ2_7sc2q178FsNP"  >
<path style="stroke: none; stroke-width: 1; stroke-dasharray: none; stroke-linecap: butt; stroke-dashoffset: 0; stroke-linejoin: miter; stroke-miterlimit: 4; fill: rgb(255,255,255); fill-rule: nonzero; opacity: 1;" vector-effect="non-scaling-stroke"  transform=" translate(-592.56, -121.28)" d="M 583.3 124 L 586.38 116.95 L 587.52 116.95 L 590.6 124 L 589.3 124 L 588.59 122.31 L 585.28 122.31 L 584.56 124 L 583.3 124 Z M 585.73 121.22 L 588.14 121.22 L 586.93 118.42 L 585.73 121.22 Z M 590.66 125.6 L 590.66 118.72 L 591.87 118.72 L 591.87 119.6 C 592.337 118.94 592.934 118.61 593.66 118.61 C 594.327 118.61 594.904 118.86 595.39 119.36 C 595.877 119.853 596.12 120.523 596.12 121.37 C 596.12 122.203 595.877 122.87 595.39 123.37 C 594.904 123.863 594.327 124.11 593.66 124.11 C 592.934 124.11 592.337 123.8 591.87 123.18 L 591.87 125.6 L 590.66 125.6 Z M 593.38 123.06 C 593.807 123.06 594.164 122.903 594.45 122.59 C 594.744 122.277 594.89 121.863 594.89 121.35 C 594.89 120.85 594.744 120.443 594.45 120.13 C 594.157 119.817 593.8 119.66 593.38 119.66 C 592.96 119.66 592.597 119.82 592.29 120.14 C 591.99 120.46 591.84 120.87 591.84 121.37 C 591.84 121.863 591.99 122.27 592.29 122.59 C 592.597 122.903 592.96 123.06 593.38 123.06 Z M 596.36 125.6 L 596.36 118.72 L 597.57 118.72 L 597.57 119.6 C 598.036 118.94 598.633 118.61 599.36 118.61 C 600.026 118.61 600.603 118.86 601.09 119.36 C 601.576 119.853 601.82 120.523 601.82 121.37 C 601.82 122.203 601.576 122.87 601.09 123.37 C 600.603 123.863 600.026 124.11 599.36 124.11 C 598.633 124.11 598.036 123.8 597.57 123.18 L 597.57 125.6 L 596.36 125.6 Z M 599.08 123.06 C 599.506 123.06 599.863 122.903 600.15 122.59 C 600.443 122.277 600.59 121.863 600.59 121.35 C 600.59 120.85 600.443 120.443 600.15 120.13 C 599.856 119.817 599.5 119.66 599.08 119.66 C 598.66 119.66 598.296 119.82 597.99 120.14 C 597.69 120.46 597.54 120.87 597.54 121.37 C 597.54 121.863 597.69 122.27 597.99 122.59 C 598.296 122.903 598.66 123.06 599.08 123.06 Z" stroke-linecap="round" />
</g>
</g>
</g>
</svg>