<?xml version="1.0" encoding="UTF-8" standalone="no" ?>
<!DOCTYPE svg PUBLIC "-//W3C//DTD SVG 1.1//EN" "http://www.w3.org/Graphics/SVG/1.1/DTD/svg11.dtd">
<svg xmlns="http://www.w3.org/2000/svg" xmlns:xlink="http://www.w3.org/1999/xlink" version="1.1" width="139.6" height="187.34" viewBox="187.76 145.71999999999997 139.6 187.34" xml:space="preserve">
<desc>Created with Fabric.js 4.6.0</desc>
<defs>
</defs>
<g transform="matrix(1 0 0 1 257.56 239.39)" id="UvTGxLXdFQqRTD8hSMu9l"  >
<g style="" vector-effect="non-scaling-stroke"   >
		<g transform="matrix(0.77 0 0 0.77 0 0)" id="Od-XUzFYHI02stIWSWLre"  >
<path style="stroke: none; stroke-width: 1; stroke-dasharray: none; stroke-linecap: butt; stroke-dashoffset: 0; stroke-linejoin: miter; stroke-miterlimit: 4; fill: rgb(235,238,242); fill-rule: nonzero; opacity: 1;" vector-effect="non-scaling-stroke"  transform=" translate(-90, -121)" d="M 0 242 L 0 0 L 180 0 L 180 242 z" stroke-linecap="round" />
</g>
		<g transform="matrix(0.77 0 0 0.77 -33.12 -77.43)" id="Ahsk6ehQW7Vy9vSuJ1mMr"  >
<path style="stroke: rgb(187,195,206); stroke-width: 1; stroke-dasharray: none; stroke-linecap: round; stroke-dashoffset: 0; stroke-linejoin: miter; stroke-miterlimit: 4; fill: none; fill-rule: nonzero; opacity: 1;" vector-effect="non-scaling-stroke"  transform=" translate(-309.99, -20.44)" d="M 302.557 20.4392 C 313.824 25.2655 306.498 15.4926 317.423 20.5575" stroke-linecap="round" />
</g>
		<g transform="matrix(0.77 0 0 0.77 -15.82 -77.43)" id="tW1MrnxJaup4FJ2u0FM8b"  >
<path style="stroke: rgb(187,195,206); stroke-width: 1; stroke-dasharray: none; stroke-linecap: round; stroke-dashoffset: 0; stroke-linejoin: miter; stroke-miterlimit: 4; fill: none; fill-rule: nonzero; opacity: 1;" vector-effect="non-scaling-stroke"  transform=" translate(-332.45, -20.44)" d="M 325.016 20.4392 C 336.282 25.2655 328.957 15.4926 339.881 20.5575" stroke-linecap="round" />
</g>
		<g transform="matrix(0.77 0 0 0.77 1.12 -77.43)" id="4RXqmHfTnTioSCEpyU4u1"  >
<path style="stroke: rgb(187,195,206); stroke-width: 1; stroke-dasharray: none; stroke-linecap: round; stroke-dashoffset: 0; stroke-linejoin: miter; stroke-miterlimit: 4; fill: none; fill-rule: nonzero; opacity: 1;" vector-effect="non-scaling-stroke"  transform=" translate(-354.45, -20.44)" d="M 347.016 20.4392 C 358.282 25.2655 350.957 15.4926 361.881 20.5575" stroke-linecap="round" />
</g>
		<g transform="matrix(0.77 0 0 0.77 18.06 -77.43)" id="NTNc29pACfDYqJ0WEifKD"  >
<path style="stroke: rgb(187,195,206); stroke-width: 1; stroke-dasharray: none; stroke-linecap: round; stroke-dashoffset: 0; stroke-linejoin: miter; stroke-miterlimit: 4; fill: none; fill-rule: nonzero; opacity: 1;" vector-effect="non-scaling-stroke"  transform=" translate(-376.45, -20.44)" d="M 369.016 20.4392 C 380.282 25.2655 372.957 15.4926 383.881 20.5575" stroke-linecap="round" />
</g>
		<g transform="matrix(0.77 0 0 0.77 35 -77.43)" id="HbJGAbUX7jwFjTsRLz9z3"  >
<path style="stroke: rgb(187,195,206); stroke-width: 1; stroke-dasharray: none; stroke-linecap: round; stroke-dashoffset: 0; stroke-linejoin: miter; stroke-miterlimit: 4; fill: none; fill-rule: nonzero; opacity: 1;" vector-effect="non-scaling-stroke"  transform=" translate(-398.45, -20.44)" d="M 391.016 20.4392 C 402.282 25.2655 394.957 15.4926 405.881 20.5575" stroke-linecap="round" />
</g>
		<g transform="matrix(0.77 0 0 0.77 51.94 -77.43)" id="L-55dTwwuS6J4HCT-wKqD"  >
<path style="stroke: rgb(187,195,206); stroke-width: 1; stroke-dasharray: none; stroke-linecap: round; stroke-dashoffset: 0; stroke-linejoin: miter; stroke-miterlimit: 4; fill: none; fill-rule: nonzero; opacity: 1;" vector-effect="non-scaling-stroke"  transform=" translate(-420.45, -20.44)" d="M 413.016 20.4392 C 424.282 25.2655 416.957 15.4926 427.881 20.5575" stroke-linecap="round" />
</g>
		<g transform="matrix(0.77 0 0 0.77 -52.36 -76.23)" id="x_hRS4uwsMimHi9qkX2N9"  >
<path style="stroke: none; stroke-width: 1; stroke-dasharray: none; stroke-linecap: butt; stroke-dashoffset: 0; stroke-linejoin: miter; stroke-miterlimit: 4; fill: rgb(187,195,206); fill-rule: nonzero; opacity: 1;" vector-effect="non-scaling-stroke"  transform=" translate(-10, -10)" d="M 0 10 C 0 4.47715 4.47715 0 10 0 C 15.52285 0 20 4.47715 20 10 C 20 15.52285 15.52285 20 10 20 C 4.47715 20 0 15.52285 0 10 z" stroke-linecap="round" />
</g>
		<g transform="matrix(0.77 0 0 0.77 0 -27.33)" id="86WVH5IKypzRyI62JgS4K"  >
<path style="stroke: none; stroke-width: 1; stroke-dasharray: none; stroke-linecap: butt; stroke-dashoffset: 0; stroke-linejoin: miter; stroke-miterlimit: 4; fill: rgb(187,195,206); fill-rule: nonzero; opacity: 1;" vector-effect="non-scaling-stroke"  transform=" translate(-78, -40.5)" d="M 0 81 L 0 0 L 156 0 L 156 81 z" stroke-linecap="round" />
</g>
		<g transform="matrix(0.77 0 0 0.77 -32.34 45.43)" id="1xojDF5wM6KKT_UZcXhav"  >
<path style="stroke: none; stroke-width: 1; stroke-dasharray: none; stroke-linecap: butt; stroke-dashoffset: 0; stroke-linejoin: miter; stroke-miterlimit: 4; fill: rgb(187,195,206); fill-rule: nonzero; opacity: 1;" vector-effect="non-scaling-stroke"  transform=" translate(-36, -46)" d="M 0 92 L 0 0 L 72 0 L 72 92 z" stroke-linecap="round" />
</g>
		<g transform="matrix(0.77 0 0 0.77 32.34 45.43)" id="PzLCqYacaoofnzb-xIdY5"  >
<path style="stroke: none; stroke-width: 1; stroke-dasharray: none; stroke-linecap: butt; stroke-dashoffset: 0; stroke-linejoin: miter; stroke-miterlimit: 4; fill: rgb(187,195,206); fill-rule: nonzero; opacity: 1;" vector-effect="non-scaling-stroke"  transform=" translate(-36, -46)" d="M 0 92 L 0 0 L 72 0 L 72 92 z" stroke-linecap="round" />
</g>
		<g transform="matrix(0.77 0 0 0.77 -51.97 -1.16)" id="ksTfFc2j_qN39CpbuX_gM"  >
<path style="stroke: none; stroke-width: 1; stroke-dasharray: none; stroke-linecap: butt; stroke-dashoffset: 0; stroke-linejoin: miter; stroke-miterlimit: 4; fill: rgb(137,155,181); fill-rule: nonzero; opacity: 1;" vector-effect="non-scaling-stroke"  transform=" translate(-1.5, -1.5)" d="M 0 1.5 C 0 0.67157 0.67157 0 1.5 0 C 2.32843 0 3 0.67157 3 1.5 C 3 2.32843 2.32843 3 1.5 3 C 0.67157 3 0 2.32843 0 1.5 z" stroke-linecap="round" />
</g>
		<g transform="matrix(0.77 0 0 0.77 -48.13 -1.16)" id="U1yoLEIaEkuWJufeJqWVf"  >
<path style="stroke: none; stroke-width: 1; stroke-dasharray: none; stroke-linecap: butt; stroke-dashoffset: 0; stroke-linejoin: miter; stroke-miterlimit: 4; fill: rgb(137,155,181); fill-rule: nonzero; opacity: 1;" vector-effect="non-scaling-stroke"  transform=" translate(-1.5, -1.5)" d="M 0 1.5 C 0 0.67157 0.67157 0 1.5 0 C 2.32843 0 3 0.67157 3 1.5 C 3 2.32843 2.32843 3 1.5 3 C 0.67157 3 0 2.32843 0 1.5 z" stroke-linecap="round" />
</g>
		<g transform="matrix(0.77 0 0 0.77 -44.27 -1.16)" id="dT42eHIhKJtt8Q9GiVjRA"  >
<path style="stroke: none; stroke-width: 1; stroke-dasharray: none; stroke-linecap: butt; stroke-dashoffset: 0; stroke-linejoin: miter; stroke-miterlimit: 4; fill: rgb(137,155,181); fill-rule: nonzero; opacity: 1;" vector-effect="non-scaling-stroke"  transform=" translate(-1.5, -1.5)" d="M 0 1.5 C 0 0.67157 0.67157 0 1.5 0 C 2.32843 0 3 0.67157 3 1.5 C 3 2.32843 2.32843 3 1.5 3 C 0.67157 3 0 2.32843 0 1.5 z" stroke-linecap="round" />
</g>
</g>
</g>
</svg>